<svg xmlns="http://www.w3.org/2000/svg" width="58.386" height="58.386" viewBox="0 0 58.386 58.386">
  <g id="Button" transform="translate(-158.807 -710.807)">
    <path id="Path_1521" data-name="Path 1521" d="M29.193,0A29.193,29.193,0,1,1,0,29.193,29.193,29.193,0,0,1,29.193,0Z" transform="translate(158.807 710.807)" fill="#bcbcbc" opacity="0.65"/>
    <path id="Icon_awesome-fingerprint" data-name="Icon awesome-fingerprint" d="M15.962,15.329a1.5,1.5,0,0,0-1.5,1.5A45.571,45.571,0,0,1,12.74,30.008a1.5,1.5,0,1,0,2.88.808,48.235,48.235,0,0,0,1.837-13.992,1.5,1.5,0,0,0-1.5-1.5Zm-.054-5.094a6.234,6.234,0,0,0-6.429,6.3,40.888,40.888,0,0,1-.833,8.884,1.5,1.5,0,1,0,2.929.606,43.876,43.876,0,0,0,.9-9.536,3.247,3.247,0,0,1,3.393-3.262,3.607,3.607,0,0,1,3.591,3.457,50.1,50.1,0,0,1-.661,8.946,1.5,1.5,0,1,0,2.95.487,53.16,53.16,0,0,0,.7-9.48A6.621,6.621,0,0,0,15.908,10.235ZM9.01,9a1.5,1.5,0,0,0-2.1.217A10.809,10.809,0,0,0,4.491,16.2a36.193,36.193,0,0,1-.568,6.983,1.5,1.5,0,0,0,2.945.532,39.2,39.2,0,0,0,.614-7.561,7.7,7.7,0,0,1,1.745-5.046A1.5,1.5,0,0,0,9.01,9Zm6.822-3.885a11.14,11.14,0,0,0-2.853.31,1.5,1.5,0,1,0,.689,2.912,8.945,8.945,0,0,1,2.119-.23A8.724,8.724,0,0,1,24.443,16.5a54.91,54.91,0,0,1-.348,7.082,1.5,1.5,0,0,0,2.972.341,57.9,57.9,0,0,0,.367-7.469,11.737,11.737,0,0,0-11.6-11.332Zm15.709,7.569a1.5,1.5,0,1,0-2.921.644,15.541,15.541,0,0,1,.293,3.839A1.5,1.5,0,0,0,30.4,18.678h.012A1.5,1.5,0,0,0,31.9,17.2a18.52,18.52,0,0,0-.363-4.508Zm-2.5-5.654A16.578,16.578,0,0,0,15.756,0,15.61,15.61,0,0,0,4.391,4.546,14.863,14.863,0,0,0,.009,15.372L0,16.71a1.5,1.5,0,0,0,1.451,1.539H1.5A1.5,1.5,0,0,0,2.991,16.8L3,15.324A11.889,11.889,0,0,1,6.508,6.662a12.63,12.63,0,0,1,9.2-3.668A13.577,13.577,0,0,1,26.595,8.751a1.495,1.495,0,1,0,2.447-1.718Z" transform="translate(171.545 724.046)" fill="#fff"/>
  </g>
</svg>
