<svg xmlns="http://www.w3.org/2000/svg" xmlns:xlink="http://www.w3.org/1999/xlink" width="294.5" height="331.576" viewBox="0 0 294.5 331.576">
  <defs>
    <linearGradient id="linear-gradient" x1="30.131" y1="2.62" x2="31.133" y2="2.62" gradientUnits="objectBoundingBox">
      <stop offset="0" stop-color="#09005d"/>
      <stop offset="1" stop-color="#1a0f91"/>
    </linearGradient>
    <linearGradient id="linear-gradient-2" x1="30.837" y1="-4.683" x2="30.563" y2="1.866" gradientUnits="objectBoundingBox">
      <stop offset="0" stop-color="#4f52ff"/>
      <stop offset="1" stop-color="#4042e2"/>
    </linearGradient>
    <linearGradient id="linear-gradient-3" x1="119.157" y1="1.732" x2="120.228" y2="1.732" gradientUnits="objectBoundingBox">
      <stop offset="0" stop-color="#febbba"/>
      <stop offset="1" stop-color="#ff928e"/>
    </linearGradient>
    <linearGradient id="linear-gradient-4" x1="1.367" y1="-0.468" x2="1.185" y2="-0.261" xlink:href="#linear-gradient-2"/>
    <linearGradient id="linear-gradient-5" x1="29.61" y1="2.587" x2="30.612" y2="2.587" xlink:href="#linear-gradient"/>
    <linearGradient id="linear-gradient-6" x1="0.792" y1="-1.382" x2="1.519" y2="-6.184" xlink:href="#linear-gradient-2"/>
    <linearGradient id="linear-gradient-7" x1="117.098" y1="1.711" x2="118.17" y2="1.711" xlink:href="#linear-gradient-3"/>
    <linearGradient id="linear-gradient-8" x1="-6.585" y1="0.054" x2="-5.309" y2="1.257" xlink:href="#linear-gradient-2"/>
    <linearGradient id="linear-gradient-9" x1="-6.418" y1="-10.493" x2="-3.011" y2="8.315" xlink:href="#linear-gradient"/>
    <linearGradient id="linear-gradient-10" x1="-5.203" y1="-0.184" x2="-6.136" y2="0.9" xlink:href="#linear-gradient"/>
    <linearGradient id="linear-gradient-11" x1="-15.392" y1="1.466" x2="-14.403" y2="1.466" xlink:href="#linear-gradient"/>
    <linearGradient id="linear-gradient-12" x1="1.527" y1="0.037" x2="0.994" y2="0.276" xlink:href="#linear-gradient"/>
    <linearGradient id="linear-gradient-13" x1="-15.816" y1="-0.132" x2="-16.779" y2="1.631" xlink:href="#linear-gradient"/>
    <linearGradient id="linear-gradient-14" x1="-20.924" y1="-0.037" x2="-21.888" y2="1.727" xlink:href="#linear-gradient-2"/>
    <linearGradient id="linear-gradient-15" x1="44.932" y1="0.761" x2="46.117" y2="0.761" xlink:href="#linear-gradient-3"/>
    <linearGradient id="linear-gradient-16" x1="68.712" y1="39.068" x2="67.413" y2="40.336" xlink:href="#linear-gradient-3"/>
    <linearGradient id="linear-gradient-17" x1="204.788" y1="138.723" x2="207.574" y2="136.297" xlink:href="#linear-gradient-3"/>
    <linearGradient id="linear-gradient-18" x1="32.22" y1="-16.394" x2="33.229" y2="-16.394" xlink:href="#linear-gradient-3"/>
    <linearGradient id="linear-gradient-19" x1="1.046" y1="-0.187" x2="0.743" y2="0.195" gradientUnits="objectBoundingBox">
      <stop offset="0" stop-color="#ff928e"/>
      <stop offset="1" stop-color="#fe7062"/>
    </linearGradient>
    <linearGradient id="linear-gradient-20" x1="-2.974" y1="0.518" x2="-1.974" y2="0.518" xlink:href="#linear-gradient"/>
    <linearGradient id="linear-gradient-21" x1="0.132" y1="0.159" x2="3.011" y2="0.764" xlink:href="#linear-gradient-2"/>
    <linearGradient id="linear-gradient-22" x1="0.642" y1="0.439" x2="1.257" y2="0.041" gradientUnits="objectBoundingBox">
      <stop offset="0" stop-color="#457b9d"/>
      <stop offset="1" stop-color="#3ba69b"/>
    </linearGradient>
    <linearGradient id="linear-gradient-23" x1="-11.553" y1="-3.224" x2="-11.788" y2="-1.442" xlink:href="#linear-gradient"/>
    <linearGradient id="linear-gradient-24" x1="-43.398" y1="0.5" x2="-42.398" y2="0.5" xlink:href="#linear-gradient-3"/>
    <linearGradient id="linear-gradient-25" x1="-20.012" y1="-2.242" x2="-20.417" y2="-1.31" xlink:href="#linear-gradient"/>
    <linearGradient id="linear-gradient-26" x1="-36.313" y1="0.5" x2="-35.313" y2="0.5" xlink:href="#linear-gradient-3"/>
    <linearGradient id="linear-gradient-27" x1="0.713" y1="0.426" x2="1.085" y2="-0.09" gradientUnits="objectBoundingBox">
      <stop offset="0" stop-color="#457b9d"/>
      <stop offset="1" stop-color="#4042e2"/>
    </linearGradient>
    <linearGradient id="linear-gradient-28" x1="-0.306" y1="-0.292" x2="-0.986" y2="0.859" gradientUnits="objectBoundingBox">
      <stop offset="0" stop-color="#a8dadc"/>
      <stop offset="1" stop-color="#17cc9c"/>
    </linearGradient>
    <linearGradient id="linear-gradient-29" x1="-22.534" y1="1.478" x2="-22.261" y2="0.434" xlink:href="#linear-gradient-3"/>
    <linearGradient id="linear-gradient-30" x1="-15.513" y1="0.35" x2="-16.625" y2="1.106" xlink:href="#linear-gradient-3"/>
    <linearGradient id="linear-gradient-31" x1="-11.546" y1="0.152" x2="-10.796" y2="1.129" xlink:href="#linear-gradient"/>
    <linearGradient id="linear-gradient-32" x1="-64.102" y1="-0.685" x2="-68.653" y2="1.784" xlink:href="#linear-gradient-3"/>
    <linearGradient id="linear-gradient-34" x1="-2.772" y1="-6.977" x2="-3.819" y2="-2.023" xlink:href="#linear-gradient-3"/>
    <linearGradient id="linear-gradient-35" x1="-32.257" y1="-33.852" x2="-33.044" y2="-32.381" xlink:href="#linear-gradient-3"/>
  </defs>
  <g id="Group_623" data-name="Group 623" transform="translate(-472.683 -464.029)">
    <g id="Group_619" data-name="Group 619" transform="translate(584.682 542.87)">
      <g id="Group_606" data-name="Group 606" transform="translate(33.391 60.382)">
        <path id="Path_1482" data-name="Path 1482" d="M1705.6,1715.259l-10.936-73.736c11.23-22.937,19.309,9.633,20.405,72.768Z" transform="translate(-1694.667 -1634.177)"/>
        <path id="Path_1483" data-name="Path 1483" d="M1772.55,2244.448l1.443-.147,96.929-9.912c3.975-9.357-4.908-16.142-28.891-18.714l-67.1,5.94Z" transform="translate(-1763.284 -2146.488)"/>
      </g>
      <g id="Group_611" data-name="Group 611" transform="translate(90.991 123.308)">
        <g id="Group_608" data-name="Group 608" transform="translate(0.718)">
          <g id="Group_607" data-name="Group 607" transform="translate(55.835 76.248)">
            <path id="Path_1484" data-name="Path 1484" d="M2669.01,2860.193c-8.136.832-11.808.5-13.483.03a3.1,3.1,0,0,0,3.251,2.083l28.785-2.943a1.408,1.408,0,0,0,1.169-1.906C2685.478,2858.057,2678.554,2859.217,2669.01,2860.193Z" transform="translate(-2655.357 -2851.086)" fill="url(#linear-gradient)"/>
            <path id="Path_1485" data-name="Path 1485" d="M2687.47,2810.279a1.371,1.371,0,0,0-.286-.466c-2.479-2.575-7.333-6.521-13.316-5.824-8.765,1.021-11.728,2.287-18.653,1.962l-1.063,5.5a3.078,3.078,0,0,0,.114,1.6c1.675.472,5.346.8,13.483-.03C2677.292,2812.039,2684.215,2810.879,2687.47,2810.279Z" transform="translate(-2654.094 -2803.908)" fill="url(#linear-gradient-2)"/>
          </g>
          <path id="Path_1486" data-name="Path 1486" d="M2665.631,2771.073l-1.288,6.919s4.58,1.545,8.265-.448l.16-5.9Z" transform="translate(-2607.289 -2698.732)" fill="url(#linear-gradient-3)"/>
          <path id="Path_1487" data-name="Path 1487" d="M2193.075,2163.184s49.121-1,59.595,2.678-.931,71.472-.931,71.472-2.587,1.588-8.833.325c0,0,1.232-49.291-4.466-59.369l-53.627-3.233Z" transform="translate(-2184.813 -2163.059)" fill="url(#linear-gradient-4)"/>
        </g>
        <g id="Group_610" data-name="Group 610" transform="translate(0 5.357)">
          <g id="Group_609" data-name="Group 609" transform="translate(56.778 77.536)">
            <path id="Path_1488" data-name="Path 1488" d="M2671.159,2916.992c-8.274.846-12.007.511-13.71.031a3.156,3.156,0,0,0,3.306,2.119l29.271-2.993a1.432,1.432,0,0,0,1.188-1.938C2687.906,2914.82,2680.865,2916,2671.159,2916.992Z" transform="translate(-2657.276 -2907.731)" fill="url(#linear-gradient-5)"/>
            <path id="Path_1489" data-name="Path 1489" d="M2689.931,2866.235a1.39,1.39,0,0,0-.291-.474c-2.521-2.619-7.457-6.631-13.541-5.923-8.913,1.039-11.926,2.325-18.969,2l-1.082,5.591a3.131,3.131,0,0,0,.116,1.623c1.7.48,5.437.815,13.71-.031C2679.582,2868.025,2686.622,2866.845,2689.931,2866.235Z" transform="translate(-2655.992 -2859.756)" fill="url(#linear-gradient-6)"/>
          </g>
          <path id="Path_1490" data-name="Path 1490" d="M2667.724,2826.367l-1.31,7.037s4.657,1.571,8.4-.456l.163-6Z" transform="translate(-2608.396 -2752.804)" fill="url(#linear-gradient-7)"/>
          <path id="Path_1491" data-name="Path 1491" d="M2187.184,2208.207s49.951-1.021,60.6,2.724-.947,72.679-.947,72.679-2.63,1.615-8.982.33c0,0-3.236-45.95-9.031-56.2l-50.044-7.462Z" transform="translate(-2178.782 -2208.08)" fill="url(#linear-gradient-8)"/>
        </g>
      </g>
      <path id="Path_1492" data-name="Path 1492" d="M1755.529,2151l77.347-7.436-.023-.229a7.031,7.031,0,0,0-7.481-6.3l-67.472,4.677a4.16,4.16,0,0,0-3.654,5.479Z" transform="translate(-1713.572 -2016.812)" fill="url(#linear-gradient-9)"/>
      <path id="Path_1493" data-name="Path 1493" d="M1417.107,1576.281c26.39-10.638,35.614-.751,36.46,30.863l6.126,59.908-6.791.695-7.248-70.877c-2.169-15.379-7.725-19.378-25.106-11.867C1414.835,1586.316,1411.043,1578.845,1417.107,1576.281Z" transform="translate(-1414.02 -1519.163)" fill="url(#linear-gradient-10)"/>
      <path id="Path_1494" data-name="Path 1494" d="M2496.041,2956.408l31.688-3.24a.357.357,0,0,0,.318-.391l-.5-4.885a.357.357,0,0,0-.391-.318l-31.687,3.24a.357.357,0,0,0-.318.391l.5,4.885A.357.357,0,0,0,2496.041,2956.408Z" transform="translate(-2366.517 -2730.924)" fill="url(#linear-gradient-11)"/>
      <path id="Path_1495" data-name="Path 1495" d="M1793.978,2243.564l95.191,10.892a15.243,15.243,0,0,1,13.4,13.337l6.968,58.367-6.875.7-10.357-56.054-99.335-.049Z" transform="translate(-1747.885 -2110.678)" fill="url(#linear-gradient-12)"/>
      <g id="Group_612" data-name="Group 612" transform="translate(137.518 207.753)">
        <circle id="Ellipse_15" data-name="Ellipse 15" cx="15.904" cy="15.904" r="15.904" transform="translate(0 22.491) rotate(-45)" fill="url(#linear-gradient-13)"/>
        <circle id="Ellipse_16" data-name="Ellipse 16" cx="12.201" cy="12.201" r="12.201" transform="translate(5.237 22.491) rotate(-45)" opacity="0.56" fill="url(#linear-gradient-14)"/>
      </g>
      <g id="Group_617" data-name="Group 617" transform="translate(45.253)">
        <g id="Group_615" data-name="Group 615" transform="translate(5.48)">
          <path id="Path_1496" data-name="Path 1496" d="M1888.381,1126.686a15.125,15.125,0,0,1,2.5.117,4.77,4.77,0,0,1,2.481.854c.387.318.677.738,1.038,1.085,1.877,1.8,4.869,1.366,6.859,3.159a5.275,5.275,0,0,1,1.514,6.15,14.851,14.851,0,0,1-4.57,5.6,7.21,7.21,0,0,0-.187-3.061c-.892-2.788-5.367-4.61-7.988-5.14-2.8-.565-6.979.969-9.455,2.207a8.711,8.711,0,0,0-2.987,2.56c-.349.426-2.341,2.645-1.943,3.258a8.215,8.215,0,0,1,3.053-11.741,23.3,23.3,0,0,0,2.6-1.318c.874-.613,1.521-1.5,2.353-2.168A7.941,7.941,0,0,1,1888.381,1126.686Z" transform="translate(-1870.294 -1126.675)" fill="#fff"/>
          <g id="Group_614" data-name="Group 614" transform="translate(0 4.241)">
            <path id="Path_1497" data-name="Path 1497" d="M1860.7,1362.441s-8.823,16.435-12.3,23.74l14.616,1.191s2.982-10.144,7.6-15.908Z" transform="translate(-1847.447 -1338.631)" fill="url(#linear-gradient-15)"/>
            <g id="Group_613" data-name="Group 613">
              <path id="Path_1498" data-name="Path 1498" d="M1927.167,1170.227a49.831,49.831,0,0,1,.913,8.137q.646,8.347,1.253,16.7l-14.045.729c-1.307-5.828-2.5-11.682-3.82-17.507-.7-3.1-1.082-7.253-3.921-9.245-1.655-1.161-3.866-.741-2.421-3.039,1.06-1.686,3.9-2.782,5.725-3.24a17.424,17.424,0,0,1,9.037.368C1924.494,1164.458,1926.333,1166.99,1927.167,1170.227Z" transform="translate(-1897.015 -1162.321)" fill="url(#linear-gradient-16)"/>
              <path id="Path_1499" data-name="Path 1499" d="M1858.3,1195.987a10.192,10.192,0,0,0,.2,3.924q.6,4.158,1.193,8.316a1.723,1.723,0,0,0,.13.455c.4.895,1.982,3.872,4.929,2.063,2.675-1.641,5.139-3.1,7.139-3.054a1.739,1.739,0,0,1,1.7,1.612,75.211,75.211,0,0,1,.007,11.677,1.735,1.735,0,0,1-1.75,1.559,56.082,56.082,0,0,1-12.979-1.486,1.741,1.741,0,0,1-1.241-1.278q-.856-3.619-1.773-7.222c-.251-.979-.2-2.316-.869-3.084a3.325,3.325,0,0,0-3.2-.92c-.5.135-.966.389-1.469.523a3.306,3.306,0,0,1-3.457-1.249c-.909-1.281-.9-3.226-2.231-4.066-.744-.472-1.666-.229-2.437-.651a3.277,3.277,0,0,1-1.386-1.777,5.636,5.636,0,0,1,.16-4.44c1.338-2.445,4.487-2.293,2.842-5.561-.83-1.649.068-3.746,1.534-4.868,3.655-2.795,10.8-4.275,13.909.027a.875.875,0,0,0,.464.405.972.972,0,0,0,.577-.147,2.8,2.8,0,0,1,3.255.881,3.173,3.173,0,0,1,.17,3.428c-.694,1.2-2.036,1.836-3.234,2.537A4.137,4.137,0,0,0,1858.3,1195.987Z" transform="translate(-1840.422 -1181.232)" fill="#fff"/>
              <path id="Path_1500" data-name="Path 1500" d="M1903.7,1335.757s-.2-7.574-3.167-8.539-6.426.943-4.222,5.648C1899.05,1338.718,1903.7,1335.757,1903.7,1335.757Z" transform="translate(-1889.044 -1307.384)" fill="url(#linear-gradient-17)"/>
            </g>
          </g>
        </g>
        <g id="Group_616" data-name="Group 616" transform="translate(0 50.112)">
          <path id="Path_1501" data-name="Path 1501" d="M2484.487,2201.406l3.281-.623,9.937-1.551a4.543,4.543,0,0,1,3.393.83l6.334,4.66a.6.6,0,0,1-.4,1.083l-21.117-1.575Z" transform="translate(-2402.377 -2121.685)" fill="url(#linear-gradient-18)"/>
          <path id="Path_1502" data-name="Path 1502" d="M1807.512,1637.558s15.958-2.778,25.363-14.966c0,0-4.008-31.2-2.351-42.192,0,0,32.717,63.936,49.27,50.148l1.3-3.8c-7.591.956-36-53.428-39.863-63.186-4.16-10.508-22.4-16.273-30.03-15.658-4.754.383-7.738.438-9.312.425a2.043,2.043,0,0,0-1.936,1.325C1797.154,1557.092,1785.49,1593.063,1807.512,1637.558Z" transform="translate(-1794.364 -1547.862)" fill="url(#linear-gradient-19)"/>
        </g>
      </g>
      <g id="Group_618" data-name="Group 618" transform="translate(17.315 121.222)">
        <circle id="Ellipse_17" data-name="Ellipse 17" cx="64.586" cy="64.586" r="64.586" fill="url(#linear-gradient-20)"/>
        <circle id="Ellipse_18" data-name="Ellipse 18" cx="55.328" cy="55.328" r="55.328" transform="translate(8.274 10.467)" opacity="0.56" fill="url(#linear-gradient-21)"/>
      </g>
    </g>
    <g id="Group_622" data-name="Group 622" transform="translate(472.683 464.029)">
      <path id="Path_1503" data-name="Path 1503" d="M1335.333,997.744c6.555,12.168,17.832,61.558,17.292,70.574l-14.328,5.148Z" transform="translate(-1232.696 -934.243)" fill="url(#linear-gradient-22)"/>
      <path id="Path_1504" data-name="Path 1504" d="M1064.541,3142.993c-6.348.549-17.364,1.44-26.049,1.823-5.221.229-8.226-.281-9.957-.975,0,.2.008.38.016.551a1.8,1.8,0,0,0,1.707,1.7,305.045,305.045,0,0,0,34.109.034,1.279,1.279,0,0,0,1.042-1.922A10.493,10.493,0,0,0,1064.541,3142.993Z" transform="translate(-962.4 -2824.252)" fill="#7d97f4"/>
      <path id="Path_1505" data-name="Path 1505" d="M1038.476,3049.9c8.685-.382,19.7-1.274,26.049-1.823-6.241-7.656-26.049-12.817-26.049-12.817h-5.594a23.465,23.465,0,0,0-4.363,13.665C1030.249,3049.622,1033.255,3050.133,1038.476,3049.9Z" transform="translate(-962.384 -2729.341)" fill="url(#linear-gradient-23)"/>
      <path id="Path_1506" data-name="Path 1506" d="M1057.286,2958.5l.523,10.36a2.366,2.366,0,0,0,2.02,2.225,9.208,9.208,0,0,0,4.2-.348,2.8,2.8,0,0,0,1.882-2.152l1.809-10.085Z" transform="translate(-987.731 -2661.71)" fill="url(#linear-gradient-24)"/>
      <g id="Group_620" data-name="Group 620" transform="translate(0 299.98)">
        <path id="Path_1507" data-name="Path 1507" d="M477.307,3189.026a5.231,5.231,0,0,1-4.52-3.891l-.01.048a4.3,4.3,0,0,0,2.411,4.749,13.744,13.744,0,0,0,6.675,1.217,6.309,6.309,0,0,0,5-2.688l.016-.024C484.808,3189.631,481.9,3189.771,477.307,3189.026Z" transform="translate(-472.683 -3161.361)" fill="#7d97f4"/>
        <path id="Path_1508" data-name="Path 1508" d="M491.05,2985.319h-4.614c-7.028-.167-11.441,17.09-12.885,23.773a5.231,5.231,0,0,0,4.52,3.892c4.591.745,7.5.6,9.576-.59,3.8-5.817,5.679-14.336,6.584-19.308C495.26,2987.431,491.05,2985.319,491.05,2985.319Z" transform="translate(-473.448 -2985.318)" fill="url(#linear-gradient-25)"/>
      </g>
      <path id="Path_1509" data-name="Path 1509" d="M567.247,2904.507l-2.562,10.19a2.766,2.766,0,0,0,1.439,3.134,9.817,9.817,0,0,0,5.305,1.285,2.31,2.31,0,0,0,1.885-1.541l3.761-10.72Z" transform="translate(-553.666 -2614.142)" fill="url(#linear-gradient-26)"/>
      <path id="Path_1510" data-name="Path 1510" d="M662.144,1755.145s-22.894,143.111-22.517,143.9a19.045,19.045,0,0,1-13.217.366s2.07-76.5,6.921-105.836c0,0-39.073,68.378-51.481,102.45a31.012,31.012,0,0,1-11.829-4.3s42.071-123.078,53.3-139.471Z" transform="translate(-558.44 -1598.983)" fill="url(#linear-gradient-27)"/>
      <path id="Path_1511" data-name="Path 1511" d="M862.159,944.643c-3.851-8.076-29.186-10.1-53.543-2.057-5.126,1.693-5.645,9.622-6.907,14.827-2.13,8.778,6.633,21.107,12.771,17,6.171,16.662,7.586,40.428,8.191,51.187.2,3.542-2.855,6.812-4.245,10.083l-20.165,52.327c-.3,4.422,56.587,15.952,57.577,11.113C870.523,1027.361,867.958,956.8,862.159,944.643Z" transform="translate(-759.522 -881.142)" fill="url(#linear-gradient-28)"/>
      <path id="Path_1512" data-name="Path 1512" d="M1034.111,769.448s-1.687,17.832-3.171,23.106a1.8,1.8,0,0,0,.849,2.059c2.52,1.44,8.565,3.789,16.833-.263a3.751,3.751,0,0,0,2.082-3.53l-.729-17.231Z" transform="translate(-964.459 -733.11)" fill="url(#linear-gradient-29)"/>
      <g id="Group_621" data-name="Group 621" transform="translate(54.568 0)">
        <path id="Path_1513" data-name="Path 1513" d="M1034.294,577.714s5.394,12.391,5.756,18.895,1.764,10.724-5.756,12.034-13.855-2.437-17.287-8.915c0,0-5.377-9.983-4.171-14.071S1034.294,577.714,1034.294,577.714Z" transform="translate(-1002.982 -564.188)" fill="url(#linear-gradient-30)"/>
        <path id="Path_1514" data-name="Path 1514" d="M947.914,494.91l.428-.189a1.032,1.032,0,0,0,.5-1.418c-1.06-2.049-3.128-6.744-.457-7.839,3.442-1.412,17.075-4.192,20.016-9.029,2.827-4.649.322-10.651-3.442-12.358a.518.518,0,0,0-.678.221l-.314.594a.511.511,0,0,1-.943-.1h0a.509.509,0,0,0-.92-.132c-.9,1.447-3.345,3.794-9.873,5-9.277,1.712-15.411,5.467-15.563,11.877a.512.512,0,0,1-.791.422c-.685-.417-1.781-.613-3.246.619-2.548,2.142-1.505,7.7,4.08,12.271a.508.508,0,0,1-.024.818c-1.013.659-2.522,2.228,1.389,4.318,4.046,2.163,7.066,1.985,8.23,1.793a.509.509,0,0,0,.413-.614l-1.241-5.634a.511.511,0,0,1,.5-.621Z" transform="translate(-931.319 -464.029)" fill="url(#linear-gradient-31)"/>
        <path id="Path_1515" data-name="Path 1515" d="M1022.582,688.493s-2.058-7.915-5.607-5.7,1.842,8.869,4.695,9.165Z" transform="translate(-1005.753 -656.423)" fill="url(#linear-gradient-32)"/>
      </g>
      <path id="Path_1516" data-name="Path 1516" d="M890.36,1055.508c-18.922-12.891-30.17-11.739-42.373-29.063l-17.318-45.995c-9.826,2.057-13.03,46.93,10.87,65.24,15.508,10.624,32.325,19.637,51,19.637Z" transform="translate(-781.575 -919.008)" fill="url(#linear-gradient-22)"/>
      <path id="Path_1517" data-name="Path 1517" d="M1427.651,1503.687a7.969,7.969,0,0,1-1.111-7.478c1.471-4.5,11.508-6.908,11.508-6.908s20.854,13.961,2.631,11.532C1436.887,1500.328,1432.793,1505.368,1427.651,1503.687Z" transform="translate(-1312.652 -1367.315)" fill="url(#linear-gradient-34)"/>
      <path id="Path_1518" data-name="Path 1518" d="M1377.622,1566.731a7.969,7.969,0,0,1-3.73-6.576c-.248-4.727,8.248-10.589,8.248-10.589s24.482,5.513,6.608,9.811C1385.028,1560.271,1383.024,1566.448,1377.622,1566.731Z" transform="translate(-1266.662 -1420.41)" fill="url(#linear-gradient-35)"/>
    </g>
  </g>
</svg>
