<svg xmlns="http://www.w3.org/2000/svg" width="119.732" height="119.732" viewBox="0 0 119.732 119.732">
  <g id="Logo" fill="none" stroke-linecap="round" stroke-linejoin="round">
    <path d="M59.866,0A59.866,59.866,0,1,1,0,59.866,59.866,59.866,0,0,1,59.866,0Z" stroke="none"/>
    <path d="M 59.86574935913086 25 C 40.64070892333984 25 25 40.64070892333984 25 59.86574935913086 C 25 79.09078979492188 40.64070892333984 94.73149871826172 59.86574935913086 94.73149871826172 C 79.09078979492188 94.73149871826172 94.73149871826172 79.09078979492188 94.73149871826172 59.86574935913086 C 94.73149871826172 40.64070892333984 79.09078979492188 25 59.86574935913086 25 M 59.86574935913086 0 C 92.92866516113281 0 119.7314987182617 26.80278778076172 119.7314987182617 59.86574935913086 C 119.7314987182617 92.92866516113281 92.92866516113281 119.7314987182617 59.86574935913086 119.7314987182617 C 26.80278778076172 119.7314987182617 0 92.92866516113281 0 59.86574935913086 C 0 26.80278778076172 26.80278778076172 0 59.86574935913086 0 Z" stroke="none" fill="#e63946"/>
  </g>
</svg>
